<svg xmlns="http://www.w3.org/2000/svg" viewBox="0 0 48 48" fill="none">
  <path d="M12 6 H27 L34 13 V39 A3 3 0 0 1 31 42 H12 A3 3 0 0 1 9 39 V9 A3 3 0 0 1 12 6 Z" fill="#f5efe6" stroke="#5d4037" stroke-width="2.4" stroke-linejoin="round"/>
  <path d="M27 6 V13 H34" fill="none" stroke="#5d4037" stroke-width="2.4" stroke-linejoin="round"/>
  <rect x="13.3" y="17.4" width="3.6" height="3.6" rx="0.9" fill="#f4b740"/>
  <rect x="19" y="18" width="9.5" height="2.2" rx="1.1" fill="#5d4037"/>
  <rect x="13.3" y="23.4" width="3.6" height="3.6" rx="0.9" fill="#c0492f"/>
  <rect x="19" y="24" width="9.5" height="2.2" rx="1.1" fill="#5d4037"/>
  <rect x="13.3" y="29.8" width="11" height="2.2" rx="1.1" fill="#5d4037"/>
  <path d="M33 23.6 L44 41.4 A1.8 1.8 0 0 1 42.4 44 H23.6 A1.8 1.8 0 0 1 22 41.4 Z" fill="#f4a93a" stroke="#5d4037" stroke-width="2.4" stroke-linejoin="round"/>
  <rect x="31.7" y="30.4" width="2.6" height="6.2" rx="1.3" fill="#4e342e"/>
  <circle cx="33" cy="40.2" r="1.55" fill="#4e342e"/>
</svg>
